<svg width="64" height="64" viewBox="0 0 64 64" fill="none" xmlns="http://www.w3.org/2000/svg">
<g clip-path="url(#clip0_20_1369)">
<path d="M19.1602 9.41003L15.1302 18.31L9.41016 11.84V9.41003H19.1602Z" fill="white"/>
<path d="M24.0202 28.03L21.0302 26.24L21.0202 25.47L19.9702 25.49L16.9502 23.5L14.4802 23.93L17.7602 28.18L17.5802 30.77L17.0502 30.83L16.7602 30.93L16.4602 31.08L16.2302 31.24L16.0702 31.44L15.9702 31.69L15.9102 31.94L15.8702 32.48L12.5902 32.13L10.7002 32.59L15.2802 33.66L15.0302 33.97L14.9602 34.15L14.8802 34.4L14.9202 34.66L15.0502 34.91L15.1902 35.14L15.4202 35.36L15.6502 35.47L15.8702 35.55L15.8802 35.73L15.6502 35.74L11.2002 41.46L11.2202 42.51L12.8202 42.48L19.2702 35.8L20.3402 35.82L11.7502 53.97H9.41016V50.63V33.34L15.6602 19.73H27.9502L24.0202 28.03Z" fill="white"/>
<path d="M48.6798 28.15H53.9698V30.94L46.5498 32.65L48.6798 28.15Z" fill="white"/>
<path d="M20.3997 9.41003H32.8297L28.4797 18.61H16.1797L20.3997 9.41003Z" fill="white"/>
<path d="M39.1299 26.38L47.1299 9.38H53.9999V27H48.4299C48.0374 26.8719 47.6364 26.7716 47.2299 26.7C46.5676 26.5965 45.8998 26.5331 45.2299 26.51C44.3299 26.51 43.4299 26.45 42.5299 26.43C41.6299 26.41 40.9099 26.43 40.0799 26.43C39.8315 26.4703 39.5783 26.4703 39.3299 26.43L39.1299 26.38Z" fill="white"/>
<path d="M34.5502 33.45L24.8502 53.97H12.9902L16.3702 46.81L22.0202 46.63L22.0102 46.41L20.9902 46.4199V46.2599L19.6802 46.2799L28.2402 35.42L29.1402 35.41L30.9202 34.4L30.9102 33.99L33.9602 33.5499L34.5502 33.45Z" fill="white"/>
<path d="M30.7803 16.34C31.8803 14.0334 32.9736 11.7234 34.0603 9.41003H45.9203L38.0803 26C37.7199 25.8887 37.3524 25.8018 36.9803 25.74C36.2746 25.6436 35.5621 25.6068 34.8503 25.63C34.2003 25.63 33.5503 25.63 32.8503 25.73L33.0603 16.39L34.4403 16.21V16.07L35.4403 15.95V15.71L30.7803 16.34Z" fill="white"/>
<path d="M47.1501 28.77L45.1501 32.97L40.1501 34.12L26.0801 54C29.3601 47.0534 32.6367 40.12 35.9101 33.2L36.3901 33.09L37.0701 32.84L37.6701 32.56L38.0201 32.33L38.3901 32.04L38.7401 31.66L38.8801 31.5L39.0001 31.26L38.8501 31.08L38.6701 31L38.4601 30.91H38.2401H38.0901V30.62H38.8901L39.7101 30.53L40.4601 30.44L43.0501 29.97C43.9801 29.8 44.9001 29.55 45.8101 29.29C46.2601 29.06 46.7101 28.93 47.1501 28.77Z" fill="white"/>
<path d="M7 56.38V7H56.38V56.38H7ZM39.13 26.38L39.32 26.44C39.5684 26.4803 39.8216 26.4803 40.07 26.44C40.9 26.44 41.71 26.44 42.52 26.44C43.33 26.44 44.32 26.44 45.22 26.52C45.8899 26.5431 46.5578 26.6065 47.22 26.71C47.6266 26.7816 48.0276 26.8819 48.42 27.01H54V9.41H47.16L39.13 26.38ZM34.55 33.45L33.97 33.55L30.91 34V34.41L29.12 35.41H28.23L19.68 46.28H20.99V46.45H21.99V46.67L16.34 46.85L13 54H24.85L34.55 33.45ZM30.78 16.34L35.47 15.71V15.95L34.47 16.07V16.21L33.09 16.39L32.88 25.73C33.53 25.66 34.18 25.64 34.88 25.63C35.5918 25.6068 36.3043 25.6436 37.01 25.74C37.3821 25.8018 37.7496 25.8886 38.11 26L45.92 9.41H34.06C32.9667 11.7233 31.8733 14.0333 30.78 16.34ZM47.15 28.77C46.71 28.93 46.26 29.06 45.81 29.19C44.9 29.45 43.98 29.7 43.05 29.87L40.46 30.34L39.71 30.43L38.89 30.52H38.09V30.81H38.24H38.46L38.67 30.9L38.85 31.01L39 31.19L38.88 31.43L38.74 31.59L38.39 31.97L38.02 32.26L37.67 32.49L37.07 32.77L36.39 33.02L35.91 33.13C32.6367 40.0967 29.36 47.0533 26.08 54L40.16 34.12L45.16 32.97L47.15 28.77ZM24 28L28 19.73H15.66L9.41 33.34V54H11.75L20.34 35.85H19.27L12.82 42.48H11.22V41.48L15.67 35.76H15.9V35.58L15.68 35.5L15.45 35.39L15.22 35.17L15.08 34.94L14.95 34.69V34.43L15 34.15V34L15.25 33.69L10.7 32.59L12.59 32.13L15.87 32.47V31.94L16 31.69L16.1 31.44L16.26 31.24L16.5 31.08L16.79 30.93L17.08 30.83L17.61 30.77L17.79 28.18L14.48 23.93L17 23.5L20 25.5H21V26.27L24 28ZM48.66 28.12L46.53 32.62L54 30.94V28.15L48.66 28.12ZM20.4 9.41L16.18 18.61H28.48L32.83 9.41H20.4ZM19.16 9.41H9.41V11.84L15.13 18.31L19.16 9.41Z" fill="black"/>
</g>
<defs>
<clipPath id="clip0_20_1369">
<rect width="49.3" height="49.38" fill="white" transform="translate(7 7)"/>
</clipPath>
</defs>
</svg>
